PathFileType	4	(X/Y/Z)	TVC_12_BWA1_walk_RCNL2025.trc
DataRate	CameraRate	NumFrames	NumMarkers	Units	OrigDataRate	OrigDataStartFrame	OrigNumFrames
100	100	6	27	mm	100	293	468
Frame#	Time	R_Shoulder			L_Shoulder			C7			J_Notch			R_Elbow			L_Elbow			R_Wrist			L_Wrist			R_Asis			L_Asis			R_Psis			L_Psis			Sacral			Thoracic			Sternum			R_Thigh_Lateral			R_Knee_Lateral			R_Shank_Lateral			R_Ankle_Lateral			R_Heel			R_Toe			L_Thigh_Lateral			L_Knee_Lateral			L_Shank_Lateral			L_Ankle_Lateral			L_Heel			L_Toe		
		X1	Y1	Z1	X2	Y2	Z2	X3	Y3	Z3	X4	Y4	Z4	X5	Y5	Z5	X6	Y6	Z6	X7	Y7	Z7	X8	Y8	Z8	X9	Y9	Z9	X10	Y10	Z10	X11	Y11	Z11	X12	Y12	Z12	X13	Y13	Z13	X14	Y14	Z14	X15	Y15	Z15	X16	Y16	Z16	X17	Y17	Z17	X18	Y18	Z18	X19	Y19	Z19	X20	Y20	Z20	X21	Y21	Z21	X22	Y22	Z22	X23	Y23	Z23	X24	Y24	Z24	X25	Y25	Z25	X26	Y26	Z26	X27	Y27	Z27
293	2.92000000	-54.705452	1358.205078	344.239319	-54.553600	1340.266846	-73.993851	-161.540909	1419.413574	132.579544	-6.645069	1305.271362	139.766602	-184.432297	1044.953735	414.461426	-213.590775	1035.400757	-132.492966	-139.248756	798.112183	386.071259	-188.020142	797.045197	-91.154713	-101.929932	915.742554	327.811768	-83.988083	921.840393	-22.576897	-272.278748	949.055481	208.457458	-271.013397	958.188354	102.027336	-271.646072	953.621918	155.242397	-254.095901	1172.065430	138.513153	73.120354	1110.613281	139.876663	-34.973511	616.746887	374.289703	23.159647	499.362793	324.724152	44.799103	290.494049	380.195984	112.423409	82.821579	331.397705	81.209061	66.667580	268.811096	246.438370	108.052238	322.484833	-173.554504	600.175110	-48.539185	-173.807480	471.441803	27.557058	-230.760529	281.975281	-9.832427	-267.406403	74.621948	64.145157	-315.109589	60.609177	116.075882	-126.954971	43.465786	81.419647
294	2.93000000	-49.394390	1356.200684	346.244415	-49.119225	1339.587158	-72.098763	-156.162445	1418.012329	134.706482	-1.155187	1304.049072	141.573212	-178.963181	1042.631836	415.282684	-208.136581	1034.839722	-131.340164	-133.899197	795.854187	386.200912	-182.747719	796.370941	-90.548233	-95.930313	913.587769	328.226990	-77.419899	921.369080	-22.332354	-265.988190	946.677856	208.470886	-264.603912	956.378967	102.217743	-265.296051	951.528412	155.344315	-248.351410	1170.507324	139.644928	79.005096	1109.602295	141.156219	-31.380697	613.264709	373.724762	28.012657	496.884094	324.384338	52.411396	288.675354	380.482117	123.138962	81.881836	332.499817	92.362862	65.045998	269.792633	256.921997	108.850784	324.071167	-168.446762	599.740723	-48.565060	-170.833923	471.250702	27.641544	-229.562363	282.037750	-9.721677	-267.247345	74.765068	64.181282	-314.969299	60.839504	116.160233	-126.992500	43.377575	81.449066
295	2.94000000	-44.074352	1354.128906	348.348572	-43.633221	1338.885620	-70.111015	-150.752579	1416.549438	136.929733	4.381985	1302.794800	143.484299	-173.438141	1040.215088	416.148773	-202.595062	1034.235718	-130.119781	-128.466446	793.503845	386.381073	-177.384209	795.662354	-89.866714	-89.799049	911.397095	328.689178	-70.728722	920.827393	-22.049873	-259.568115	944.253662	208.504501	-258.046906	954.501892	102.443275	-258.807510	949.377777	155.473888	-242.529358	1168.887085	140.830902	84.962746	1108.576904	142.534714	-27.478115	609.947693	373.096771	32.998222	494.416138	324.117615	59.292648	286.658325	380.567474	132.537811	80.632233	333.249481	102.349571	63.309193	270.315674	266.133484	108.899063	325.748962	-162.975540	599.218079	-48.588184	-167.733200	471.036865	27.726126	-228.307297	282.101379	-9.602091	-267.085388	74.894844	64.218193	-314.830322	61.092091	116.231270	-126.996254	43.323601	81.452896
296	2.95000000	-38.741173	1351.997559	350.551147	-38.089882	1338.169067	-68.031509	-145.305573	1415.036133	139.245743	9.974694	1301.515137	145.502151	-167.857422	1037.713257	417.055054	-196.958954	1033.595947	-128.833633	-122.949471	791.069946	386.612717	-171.918945	794.925232	-89.115051	-83.537262	909.175354	329.202759	-63.915730	920.204834	-21.717695	-253.020309	941.823608	208.563934	-251.336334	952.576843	102.708702	-252.178322	947.200226	155.636318	-236.626053	1167.213501	142.073181	90.997070	1107.540283	144.012619	-23.222422	606.826294	372.446075	38.090923	491.949615	323.924072	65.461029	284.429138	380.438934	140.603729	79.035454	333.626251	111.129456	61.435757	270.367493	274.055206	108.143745	327.477020	-157.208099	598.628967	-48.584431	-164.525055	470.777191	27.818518	-226.957184	282.179138	-9.485743	-266.922333	75.006920	64.254211	-314.696869	61.371101	116.287804	-126.978134	43.293995	81.440010
297	2.96000000	-33.389297	1349.813965	352.852905	-32.482048	1337.446289	-65.860611	-139.814224	1413.487549	141.653732	15.632462	1300.218994	147.628387	-162.219559	1035.136230	417.997314	-191.219177	1032.931396	-127.483696	-117.347118	788.561890	386.892242	-166.348320	794.166046	-88.295418	-77.143974	906.933655	329.774323	-56.981983	919.491516	-21.323851	-246.356873	939.437195	208.665771	-244.470032	950.624756	103.016037	-245.413452	945.030975	155.840904	-230.636841	1165.501343	143.375290	97.113945	1106.499634	145.589569	-18.578327	603.919495	371.817078	43.260437	489.484924	323.801910	70.956520	281.996796	380.095978	147.363464	77.095963	333.643036	118.684349	59.438400	269.981079	280.713135	106.552567	329.192108	-151.231750	597.984802	-48.522949	-161.217026	470.453125	27.935307	-225.472519	282.276947	-9.377861	-266.755005	75.105194	64.285652	-314.569000	61.681458	116.326393	-126.948273	43.279701	81.418892
298	2.97000000	-28.010998	1347.587402	355.254883	-26.800257	1336.728760	-63.598778	-134.270111	1411.922485	144.154739	21.364820	1298.918701	149.864792	-156.521317	1032.496704	418.974304	-185.363510	1032.257202	-126.070976	-111.657162	785.990723	387.213669	-160.678261	793.392395	-87.406551	-70.613693	904.694397	330.414978	-49.930367	918.679077	-20.858376	-239.598358	937.150635	208.836685	-237.449692	948.666382	103.363800	-238.524025	942.908508	156.100243	-224.555466	1163.772705	144.739517	103.320763	1105.465698	147.264297	-13.527493	601.241760	371.253174	48.476467	487.039246	323.750763	75.836205	279.395447	379.544678	152.898911	74.864845	333.347656	125.038300	57.371437	269.235107	286.193512	104.119713	330.819733	-145.140732	597.284912	-48.373848	-157.803802	470.051971	28.099245	-223.824738	282.387299	-9.269834	-266.576904	75.201912	64.308136	-314.443451	62.030674	116.343231	-126.914024	43.273533	81.396851
